<svg width="32" height="32" viewBox="0 0 32 32" fill="none" xmlns="http://www.w3.org/2000/svg">
<path d="M30.2998 13.6586V25.5415C30.2998 26.0098 30.6642 26.361 31.1499 26.361C31.6357 26.361 32 26.0098 32 25.5415V12.8976L30.2998 13.6586Z" fill="#007FFF"/>
<path d="M15.9089 28C21.8596 28 25.9886 25.8342 25.9886 23.961V15.5903L16.2732 19.922C16.1518 19.9805 16.0304 19.9805 15.9089 19.9805C15.7875 19.9805 15.666 19.9805 15.5446 19.922L5.82922 15.5903V23.9025C5.82922 25.8342 9.95825 28 15.9089 28Z" fill="#007FFF"/>
<path d="M15.9089 18.2829L31.8178 11.1415L15.9089 4L0 11.1415L15.9089 18.2829Z" fill="#007FFF"/>
</svg>
