<svg width="237" height="40" viewBox="0 0 237 40" fill="none" xmlns="http://www.w3.org/2000/svg">
<g clip-path="url(#clip0_5_2)">
<path d="M44.5028 16.0976V35.9025C44.5028 36.6829 45.0379 37.2683 45.7514 37.2683C46.4649 37.2683 47 36.6829 47 35.9025V14.8293L44.5028 16.0976Z" fill="#007FFF"/>
<path d="M23.3662 40C32.1062 40 38.1708 36.3902 38.1708 33.2683V19.3171L23.9013 26.5366C23.7229 26.6341 23.5446 26.6341 23.3662 26.6341C23.1878 26.6341 23.0095 26.6341 22.8311 26.5366L8.56165 19.3171V33.1707C8.56165 36.3902 14.6262 40 23.3662 40Z" fill="#007FFF"/>
<path d="M23.3662 23.8049L46.7324 11.9024L23.3662 0L0 11.9024L23.3662 23.8049Z" fill="#007FFF"/>
<path d="M72.6554 5.01366C73.0652 5.01366 73.4135 5.15709 73.7004 5.44396C73.9873 5.73083 74.1307 6.07917 74.1307 6.48898V9.4806C74.1307 9.89042 73.9873 10.2388 73.7004 10.5256C73.4135 10.8125 73.0652 10.9559 72.6554 10.9559H68.4343C68.0518 10.9559 67.7172 10.8125 67.4303 10.5256C67.1434 10.2388 67 9.89042 67 9.4806V6.48898C67 6.07917 67.1434 5.73083 67.4303 5.44396C67.7172 5.15709 68.0518 5.01366 68.4343 5.01366H72.6554ZM90.974 5.01366C91.3565 5.01366 91.6911 5.15709 91.978 5.44396C92.2649 5.73083 92.4083 6.07917 92.4083 6.48898V9.4806C92.4083 9.89042 92.2649 10.2388 91.978 10.5256C91.6911 10.8125 91.3565 10.9559 90.974 10.9559H82.7368V34.2332C82.7368 34.6157 82.5933 34.9504 82.3065 35.2372C82.0196 35.5241 81.6849 35.6675 81.3024 35.6675H78.1469C77.7371 35.6675 77.3887 35.5241 77.1018 35.2372C76.815 34.9504 76.6715 34.6157 76.6715 34.2332V6.48898C76.6715 6.07917 76.815 5.73083 77.1018 5.44396C77.3887 5.15709 77.7371 5.01366 78.1469 5.01366H90.974V5.01366ZM121.603 29.5204C122.013 29.5204 122.355 29.6638 122.628 29.9507C122.901 30.2376 123.038 30.5859 123.038 30.9957V33.9873C123.038 34.3698 122.901 34.7045 122.628 34.9914C122.355 35.2782 122.013 35.4217 121.603 35.4217H101.359C100.976 35.4217 100.641 35.2782 100.355 34.9914C100.068 34.7045 99.9242 34.3698 99.9242 33.9873V30.9957C99.9242 30.5859 100.068 30.2376 100.355 29.9507C100.641 29.6638 100.976 29.5204 101.359 29.5204H121.603V29.5204ZM101.359 23.1683C100.976 23.1683 100.641 23.0249 100.355 22.738C100.068 22.4511 99.9242 22.1165 99.9242 21.734V18.6604C99.9242 18.2779 100.068 17.9432 100.355 17.6563C100.641 17.3695 100.976 17.226 101.359 17.226H119.759C120.169 17.226 120.517 17.3695 120.804 17.6563C121.091 17.9432 121.234 18.2779 121.234 18.6604V21.734C121.234 22.1165 121.091 22.4511 120.804 22.738C120.517 23.0249 120.169 23.1683 119.759 23.1683H101.359ZM121.603 5.01366C122.013 5.01366 122.355 5.15709 122.628 5.44396C122.901 5.73083 123.038 6.06551 123.038 6.448V9.43962C123.038 9.84943 122.901 10.1978 122.628 10.4846C122.355 10.7715 122.013 10.9149 121.603 10.9149H101.359C100.976 10.9149 100.641 10.7715 100.355 10.4846C100.068 10.1978 99.9242 9.84943 99.9242 9.43962V6.448C99.9242 6.06551 100.068 5.73083 100.355 5.44396C100.641 5.15709 100.976 5.01366 101.359 5.01366H121.603V5.01366ZM151.659 20.2177C152.834 20.9553 153.728 21.8569 154.343 22.9224C154.958 23.9879 155.265 25.1764 155.265 26.4878C155.265 29.575 154.09 31.9383 151.741 33.5775C150.156 34.725 148.012 35.449 145.307 35.7495H145.143C144.76 35.7495 144.446 35.6266 144.2 35.3807C143.872 35.0802 143.708 34.725 143.708 34.3152V31.3645C143.708 31.0094 143.831 30.6952 144.077 30.422C144.323 30.1488 144.624 29.9848 144.979 29.9302C146.263 29.7936 147.26 29.4931 147.971 29.0286C148.517 28.7008 148.886 28.2773 149.077 27.7582C149.186 27.4577 149.241 27.0752 149.241 26.6107C149.241 26.3102 149.186 26.0506 149.077 25.8321C148.968 25.6135 148.776 25.4086 148.503 25.2174C147.711 24.6709 146.686 24.2065 145.43 23.824L144.774 23.6191C143.408 23.2366 142.151 22.9224 141.004 22.6765C140.758 22.6219 140.362 22.5263 139.815 22.3897L139.364 22.2667C138.381 22.0208 137.343 21.6793 136.25 21.2422C134.638 20.5592 133.313 19.6986 132.275 18.6604C131.073 17.4583 130.472 15.8737 130.472 13.9066C130.472 11.2018 131.51 9.00249 133.586 7.3086C135.007 6.10649 137.001 5.34151 139.569 5.01366C140.007 4.95902 140.382 5.08196 140.696 5.38249C141.011 5.68302 141.168 6.03819 141.168 6.448V9.39864C141.168 9.75381 141.058 10.068 140.84 10.3412C140.621 10.6144 140.341 10.7715 140 10.8125C139.658 10.8535 139.31 10.9286 138.955 11.0379C138.162 11.3384 137.602 11.6321 137.274 11.919C136.947 12.2058 136.714 12.4995 136.578 12.8001C136.441 13.2645 136.373 13.7017 136.373 14.1115C136.373 14.33 136.496 14.5623 136.742 14.8082C137.124 15.1906 137.684 15.5322 138.422 15.8327C138.75 15.9693 139.324 16.1742 140.143 16.4474L145.266 17.7178L145.512 17.7998C146.796 18.1549 147.725 18.4282 148.298 18.6194C149.582 19.0565 150.703 19.5893 151.659 20.2177V20.2177ZM144.815 10.9559C144.487 10.874 144.221 10.7032 144.016 10.4437C143.811 10.1841 143.708 9.87675 143.708 9.52158V6.52996C143.708 6.09283 143.886 5.724 144.241 5.42347C144.378 5.28687 144.555 5.19808 144.774 5.15709C144.993 5.11611 145.197 5.10928 145.389 5.1366C147.793 5.51909 149.746 6.33872 151.249 7.59547C153.298 9.28936 154.391 11.4477 154.528 14.0705C154.555 14.453 154.425 14.8013 154.138 15.1155C153.851 15.4297 153.503 15.5868 153.093 15.5868H149.897C149.541 15.5868 149.227 15.4638 148.954 15.218C148.681 14.9721 148.531 14.6715 148.503 14.3164C148.394 13.606 148.162 13.0186 147.807 12.5542C147.233 11.8712 146.345 11.3521 145.143 10.9969C145.061 10.9969 145.006 10.9832 144.979 10.9559H144.815V10.9559ZM140.02 29.7663C140.348 29.8209 140.621 29.9848 140.84 30.258C141.058 30.5312 141.168 30.8318 141.168 31.1596V34.1922C141.168 34.6294 141.004 34.9982 140.676 35.2987C140.403 35.5173 140.088 35.6266 139.733 35.6266H139.528C136.988 35.2441 134.898 34.4108 133.258 33.1267C131.127 31.4328 129.925 29.0696 129.652 26.037C129.597 25.5999 129.72 25.2242 130.021 24.91C130.321 24.5958 130.676 24.4387 131.086 24.4387H134.324C134.706 24.4387 135.034 24.5685 135.307 24.828C135.581 25.0876 135.731 25.4086 135.758 25.7911C135.84 27.1571 136.509 28.209 137.766 28.9466C138.34 29.2745 139.091 29.5477 140.02 29.7663V29.7663ZM166.551 5.01366C166.961 5.01366 167.31 5.15709 167.596 5.44396C167.883 5.73083 168.027 6.07917 168.027 6.48898V9.4806C168.027 9.89042 167.883 10.2388 167.596 10.5256C167.31 10.8125 166.961 10.9559 166.551 10.9559H162.33C161.948 10.9559 161.613 10.8125 161.326 10.5256C161.039 10.2388 160.896 9.89042 160.896 9.4806V6.48898C160.896 6.07917 161.039 5.73083 161.326 5.44396C161.613 5.15709 161.948 5.01366 162.33 5.01366H166.551ZM184.87 5.01366C185.252 5.01366 185.587 5.15709 185.874 5.44396C186.161 5.73083 186.304 6.07917 186.304 6.48898V9.4806C186.304 9.89042 186.161 10.2388 185.874 10.5256C185.587 10.8125 185.252 10.9559 184.87 10.9559H176.633V34.2332C176.633 34.6157 176.489 34.9504 176.202 35.2372C175.916 35.5241 175.581 35.6675 175.198 35.6675H172.043C171.633 35.6675 171.285 35.5241 170.998 35.2372C170.711 34.9504 170.568 34.6157 170.568 34.2332V6.48898C170.568 6.07917 170.711 5.73083 170.998 5.44396C171.285 5.15709 171.633 5.01366 172.043 5.01366H184.87V5.01366ZM198.369 17.1851C198.779 17.1851 199.12 17.3285 199.394 17.6154C199.667 17.9022 199.803 18.2506 199.803 18.6604V33.9873C199.803 34.3698 199.667 34.7045 199.394 34.9914C199.12 35.2782 198.779 35.4217 198.369 35.4217H195.255C194.872 35.4217 194.537 35.2782 194.251 34.9914C193.964 34.7045 193.82 34.3698 193.82 33.9873V18.6604C193.82 18.2506 193.964 17.9022 194.251 17.6154C194.537 17.3285 194.872 17.1851 195.255 17.1851H198.369ZM198.369 5.01366C198.779 5.01366 199.12 5.15709 199.394 5.44396C199.667 5.73083 199.803 6.06551 199.803 6.448V14.0295C199.803 14.4393 199.667 14.7877 199.394 15.0745C199.12 15.3614 198.779 15.5048 198.369 15.5048H195.255C194.872 15.5048 194.537 15.3614 194.251 15.0745C193.964 14.7877 193.82 14.4393 193.82 14.0295V6.448C193.82 6.06551 193.964 5.73083 194.251 5.44396C194.537 5.15709 194.872 5.01366 195.255 5.01366H198.369ZM225.187 10.874C224.832 10.8193 224.538 10.6554 224.306 10.3822C224.074 10.109 223.958 9.79479 223.958 9.43962V6.448C223.958 5.98355 224.122 5.61472 224.45 5.34151C224.777 5.0683 225.16 4.95902 225.597 5.01366C227.947 5.39615 230.037 6.22943 231.867 7.51351C234.244 9.23472 235.924 11.516 236.908 14.3574C237.072 14.8218 237.017 15.2589 236.744 15.6688C236.471 16.0786 236.075 16.2835 235.555 16.2835H232.277C231.976 16.2835 231.703 16.2083 231.457 16.0581C231.211 15.9078 231.034 15.6961 230.925 15.4229C230.323 14.0022 229.408 12.8684 228.179 12.0214C227.223 11.4204 226.225 11.0379 225.187 10.874V10.874ZM235.555 24.4797C236.075 24.4797 236.471 24.6846 236.744 25.0944C237.017 25.5042 237.072 25.9414 236.908 26.4058C235.924 29.2472 234.244 31.5285 231.867 33.2497C230.037 34.5337 227.947 35.367 225.597 35.7495H225.392C225.01 35.7495 224.695 35.6266 224.45 35.3807C224.122 35.1348 223.958 34.7796 223.958 34.3152V31.3236C223.958 30.9684 224.067 30.6542 224.286 30.381C224.504 30.1078 224.791 29.9439 225.146 29.8892C226.294 29.7253 227.305 29.3428 228.179 28.7417C229.408 27.8948 230.323 26.761 230.925 25.3403C231.034 25.0671 231.211 24.8554 231.457 24.7051C231.703 24.5548 231.976 24.4797 232.277 24.4797H235.555V24.4797ZM220.884 5.50543C221.239 5.77864 221.417 6.14747 221.417 6.61193V9.80845C221.417 10.109 221.314 10.389 221.11 10.6486C220.905 10.9081 220.652 11.0925 220.351 11.2018C219.969 11.2838 219.668 11.3794 219.45 11.4887C218.357 11.9805 217.428 12.6498 216.663 13.4968C215.106 15.2453 214.327 17.5334 214.327 20.3611C214.327 23.1888 215.106 25.4906 216.663 27.2664C217.619 28.3592 218.849 29.1242 220.351 29.5614C220.652 29.6433 220.905 29.8141 221.11 30.0736C221.314 30.3332 221.417 30.6132 221.417 30.9137V34.1512C221.417 34.6157 221.239 34.9845 220.884 35.2577C220.638 35.4763 220.324 35.5856 219.942 35.5856H219.655C216.731 34.9572 214.259 33.5365 212.237 31.3236C209.642 28.4002 208.344 24.7529 208.344 20.3816C208.344 16.0103 209.642 12.3629 212.237 9.43962C214.259 7.19932 216.731 5.7923 219.655 5.21857C220.092 5.10928 220.502 5.20491 220.884 5.50543V5.50543Z" fill="#007FFF"/>
</g>
<defs>
<clipPath id="clip0_5_2">
<rect width="237" height="40" fill="white"/>
</clipPath>
</defs>
</svg>
