<svg width="486" height="461" viewBox="0 0 486 461" fill="none" xmlns="http://www.w3.org/2000/svg">
<path d="M0 4.00005C51.7 -0.599954 103.5 -5.09996 144.3 16.9C185.1 38.8 215.1 87.3001 245.1 123.6C275.1 159.9 305.3 184 342.2 212.4C379.1 240.7 422.9 273.3 447.9 315.5C473 357.6 479.5 409.3 486 461H0V4.00005Z" fill="#D7DDFF"/>
<path d="M0 156.3C34.5 153.3 69 150.3 96.2 164.9C123.4 179.6 143.4 211.9 163.4 236.1C183.4 260.3 203.5 276.4 228.1 295.2C252.8 314.1 281.9 335.9 298.6 364C315.4 392.1 319.7 426.5 324 461H0V156.3Z" fill="#769DFF"/>
<path d="M0 308.7C17.2 307.1 34.5 305.6 48.1 313C61.7 320.3 71.7 336.4 81.7 348.5C91.7 360.6 101.8 368.7 114.1 378.1C126.4 387.6 141 398.4 149.3 412.5C157.7 426.5 159.8 443.8 162 461H0V308.7Z" fill="#007FFF"/>
</svg>
