<svg width="494" height="534" viewBox="0 0 494 534" fill="none" xmlns="http://www.w3.org/2000/svg">
<path d="M494 534C443.9 518.4 393.8 502.9 333.6 493.6C273.5 484.3 203.3 481.3 176.6 436.9C149.9 392.5 166.7 306.6 141.3 256.3C115.8 205.9 48.1999 191 19.3999 154.2C-9.30012 117.4 0.799888 58.7 10.9999 0H494V534Z" fill="#D7DDFF"/>
<path d="M494 356C460.6 345.6 427.2 335.3 387.1 329.1C347 322.9 300.2 320.9 282.4 291.2C264.6 261.6 275.8 204.4 258.8 170.8C241.9 137.3 196.8 127.3 177.6 102.8C158.4 78.3 165.2 39.1 172 0H494V356Z" fill="#769DFF"/>
<path d="M494 178C477.3 172.8 460.6 167.6 440.5 164.5C420.5 161.4 397.1 160.4 388.2 145.6C379.3 130.8 384.9 102.2 376.4 85.4C367.9 68.6 345.4 63.7 335.8 51.4C326.2 39.1 329.6 19.6 333 0H494V178Z" fill="#007FFF"/>
</svg>
